<?xml version="1.0" standalone="no"?><!DOCTYPE svg PUBLIC "-//W3C//DTD SVG 1.1//EN" "http://www.w3.org/Graphics/SVG/1.1/DTD/svg11.dtd"><svg class="icon" height="512" viewBox="0 0 1024 1024" version="1.1" xmlns="http://www.w3.org/2000/svg"><path d="M1013.964369 962.323824l-174.060624-186.088757a470.888643 470.888643 0 0 0 109.349995-302.165732c0-261.401692-212.887001-474.105895-474.58117-474.105895-261.65761 0-474.544611 212.667643-474.544611 474.105895 0 261.401692 212.887001 474.069335 474.544611 474.069335a471.912314 471.912314 0 0 0 196.508265-42.445786 36.449998 36.449998 0 1 0-30.234853-66.392373 399.231676 399.231676 0 0 1-166.273412 35.901603c-221.441965 0-401.534935-179.946731-401.534936-401.132779S253.230604 72.899996 474.67257 72.899996s401.571495 179.946731 401.571494 401.169339a398.866079 398.866079 0 0 1-111.872612 277.780428 36.486558 36.486558 0 0 0 0.950552 51.585704c1.13335 1.060231 2.559177 1.462387 3.802206 2.376379 0.987111 1.462387 1.498947 3.107573 2.741976 4.423721l188.794173 201.845978c7.165697 7.677532 16.890571 11.552858 26.615445 11.552858 8.957121 0 17.914242-3.253811 24.9337-9.834553a36.340319 36.340319 0 0 0 1.754865-51.476026z" fill="rgba(202, 202, 202, 1)" /></svg>